<?xml version="1.0" standalone="no"?><!DOCTYPE svg PUBLIC "-//W3C//DTD SVG 1.1//EN"
        "http://www.w3.org/Graphics/SVG/1.1/DTD/svg11.dtd">
<svg class="icon" viewBox="0 0 1024 1024" version="1.1" xmlns="http://www.w3.org/2000/svg"
     width="16" height="16">
    <path d="M499.68 285.84A9.92 9.92 0 0 0 489.84 296v68.88H342.16a9.84 9.84 0 0 0-9.84 9.84v68.96h-68.96a9.84 9.84 0 0 0-9.84 9.84v68.88h-6.72a9.92 9.92 0 0 0-9.6 8c-0.72 3.28-17.52 81.04 29.92 145.92 34.4 47.04 93.04 74.4 174.32 81.44 10.64 0.88 20.96 1.36 31.04 1.36 196.32 0 275.04-168 290.24-206.08 77.2 6.16 100.48-56 100.72-56.48a9.84 9.84 0 0 0-2.88-10.8c-30.32-26.08-60.16-26.56-80.72-20.16 2.08-45.12-45.28-77.44-48-79.04a9.84 9.84 0 0 0-13.6 2.72c-40 60.64-24 104.72-14.48 122a62.88 62.88 0 0 1-36.16 11.44h-0.96v-69.44a9.84 9.84 0 0 0-9.84-9.84h-68.48V296a9.92 9.92 0 0 0-9.84-9.92z m9.84 19.76h59.12v59.04h-59.12zM352 384h137.84v59.12h-59.12v-29.2a9.84 9.84 0 1 0-19.68 0v29.52H352z m157.52 0h59.12v138.16h-59.12v-59.04h29.52a9.84 9.84 0 1 0 0-19.68h-29.52z m219.92 24c13.92 12 40 39.52 27.44 70.48a9.84 9.84 0 0 0 3.2 11.52 10 10 0 0 0 11.92 0c1.36-1.04 32-23.44 69.92 4.88-7.44 13.52-30.56 43.84-84.4 36.64a9.76 9.76 0 0 0-10.64 6.64c-0.72 2.08-68.32 200-274.64 200-9.44 0-19.12 0-29.12-1.28-75.12-5.84-129.12-30.48-160-72.88-34.08-46.48-30.64-102.32-27.92-122.4h412.56a80 80 0 0 0 56.48-22.8 9.84 9.84 0 0 0 0-12.96s-29.6-37.2 5.2-97.2z m-456 54.48h59.12v59.04h-59.36z m78.8 0h59.04v59.04H352z m78.72 0h59.12v59.04h-59.36z m157.6 0h59.04v59.04h-59.28z m-231.44 128A24.64 24.64 0 1 0 381.52 616a24.56 24.56 0 0 0-24.64-24.88z m293.36 5.04a9.52 9.52 0 0 0-6.72 3.44 9.76 9.76 0 0 0 1.12 13.84l15.04 12.8a9.92 9.92 0 0 0 6.32 2.32 9.84 9.84 0 0 0 6.4-17.36l-15.04-12.72a9.6 9.6 0 0 0-7.36-1.68z m-32 33.44a10 10 0 0 0-7.2 2.16 9.84 9.84 0 0 0-1.44 13.84l12.4 15.28a9.84 9.84 0 0 0 8 3.68 9.6 9.6 0 0 0 6.16-2.24 9.76 9.76 0 0 0 1.44-13.84l-12.4-15.28a9.68 9.68 0 0 0-7.52-2.96z m-41.52 25.92a9.52 9.52 0 0 0-3.76 1.04 10 10 0 0 0-5.2 13.92l8.96 17.52a9.84 9.84 0 0 0 8.8 5.36 9.76 9.76 0 0 0 8.8-14.24l-8.96-17.6a10 10 0 0 0-9.2-5.36zM534.24 672a10.8 10.8 0 0 0-3.92 0 9.92 9.92 0 0 0-7.12 12L528 704a9.84 9.84 0 0 0 9.52 7.36 8.8 8.8 0 0 0 2.48 0 9.84 9.84 0 0 0 7.04-12L542.32 680a9.92 9.92 0 0 0-8.08-8z m-49.04 6.96a9.76 9.76 0 0 0-9.28 10.32l0.96 19.68a9.84 9.84 0 0 0 9.84 9.36h0.48a9.76 9.76 0 0 0 9.36-10.32l-1.04-19.68a9.92 9.92 0 0 0-10.32-9.04z"
          fill="#473EE5"/>
</svg>