<?xml version="1.0" standalone="no"?><!DOCTYPE svg PUBLIC "-//W3C//DTD SVG 1.1//EN" "http://www.w3.org/Graphics/SVG/1.1/DTD/svg11.dtd"><svg t="1711706202928" class="icon" viewBox="0 0 1024 1024" version="1.1" xmlns="http://www.w3.org/2000/svg" p-id="12980" xmlns:xlink="http://www.w3.org/1999/xlink" width="16" height="16"><path d="M961.524558 756.902915a510.916449 510.916449 0 0 0 59.902475-292.158381c-22.294705-245.241757-222.388521-442.636006-467.909544-462.184599C238.180061-22.108528-22.700571 238.772104 1.967892 553.87681c19.269328 245.521023 216.663576 445.614839 462.184599 467.863a510.916449 510.916449 0 0 0 292.158381-59.855931l221.17837 40.912413a21.456908 21.456908 0 0 0 24.947729-24.994272l-40.912413-220.852561z m-470.888378 31.324294a26.530234 26.530234 0 1 1 0.093089-53.060468 26.530234 26.530234 0 0 1-0.093089 53.060468z m62.602043-266.605578c-26.204424 16.24395-36.118353 23.458312-36.118353 37.60777v105.608949a26.530234 26.530234 0 0 1-52.967379 0v-105.655493c0-45.101397 33.977317-65.860142 61.391892-82.709167 33.092976-20.479479 61.671157-37.887036 61.671157-93.274717 0-53.246645-43.286171-96.858625-96.858625-96.858625-53.293189 0-96.90517 43.286171-96.90517 96.858625a26.530234 26.530234 0 0 1-52.967379 0 149.732916 149.732916 0 0 1 149.546739-149.546739 149.732916 149.732916 0 0 1 149.546738 149.546739c0.930885 85.176014-49.336926 115.848687-86.33962 138.422658z" fill="#2DB95F" p-id="12981"></path></svg>